<svg width="5" height="18" viewBox="0 0 5 18" fill="none" xmlns="http://www.w3.org/2000/svg">
<path d="M0.838928 8.69728C0.838928 8.42407 0.892742 8.15353 0.997297 7.90111C1.10185 7.64869 1.2551 7.41934 1.44829 7.22614C1.64149 7.03295 1.87084 6.8797 2.12326 6.77515C2.37567 6.67059 2.64622 6.61678 2.91943 6.61678C3.19265 6.61678 3.46319 6.67059 3.71561 6.77515C3.96802 6.8797 4.19738 7.03295 4.39057 7.22614C4.58376 7.41934 4.73701 7.64869 4.84157 7.90111C4.94612 8.15353 4.99993 8.42407 4.99993 8.69728C4.99981 9.24907 4.78049 9.7782 4.39023 10.1683C3.99998 10.5584 3.47074 10.7774 2.91896 10.7773C2.36717 10.7772 1.83804 10.5579 1.44796 10.1676C1.05788 9.77735 0.838803 9.24812 0.838928 8.69634L0.838928 8.69728ZM0.838928 2.08051C0.838928 1.80729 0.892742 1.53675 0.997297 1.28433C1.10185 1.03191 1.2551 0.802562 1.44829 0.609369C1.64149 0.416177 1.87084 0.262928 2.12326 0.158373C2.37567 0.0538177 2.64622 3.8937e-06 2.91943 3.90564e-06C3.19265 3.91758e-06 3.46319 0.0538177 3.71561 0.158373C3.96802 0.262928 4.19738 0.416177 4.39057 0.609369C4.58376 0.802562 4.73701 1.03191 4.84157 1.28433C4.94612 1.53675 4.99993 1.80729 4.99993 2.08051C4.99981 2.63229 4.78049 3.16143 4.39024 3.55151C3.99998 3.94159 3.47074 4.16066 2.91896 4.16054C2.36717 4.16041 1.83804 3.9411 1.44796 3.55084C1.05788 3.16058 0.838803 2.63135 0.838928 2.07956L0.838928 2.08051ZM0.838928 15.3141C0.838928 15.0408 0.892741 14.7703 0.997296 14.5179C1.10185 14.2655 1.2551 14.0361 1.44829 13.8429C1.64149 13.6497 1.87084 13.4965 2.12326 13.3919C2.37567 13.2874 2.64622 13.2336 2.91943 13.2336C3.19265 13.2336 3.46319 13.2874 3.7156 13.3919C3.96802 13.4965 4.19738 13.6497 4.39057 13.8429C4.58376 14.0361 4.73701 14.2655 4.84156 14.5179C4.94612 14.7703 4.99993 15.0408 4.99993 15.3141C4.99981 15.8658 4.78049 16.395 4.39023 16.7851C3.99998 17.1751 3.47074 17.3942 2.91896 17.3941C2.36717 17.394 1.83804 17.1746 1.44796 16.7844C1.05788 16.3941 0.838802 15.8649 0.838928 15.3131L0.838928 15.3141Z" fill="white"/>
</svg>
