<svg width="42" height="42" viewBox="0 0 42 42" fill="none" xmlns="http://www.w3.org/2000/svg">
<mask id="mask0_5_390" style="mask-type:luminance" maskUnits="userSpaceOnUse" x="0" y="0" width="42" height="42">
<path fill-rule="evenodd" clip-rule="evenodd" d="M0 12C0 5.37258 5.37258 0 12 0H30C36.6274 0 42 5.37258 42 12V30C42 36.6274 36.6274 42 30 42H12C5.37258 42 0 36.6274 0 30V12ZM15.75 13.25C15.75 12.6977 16.1977 12.25 16.75 12.25H18.25C18.8023 12.25 19.25 12.6977 19.25 13.25V28.75C19.25 29.3023 18.8023 29.75 18.25 29.75H16.75C16.1977 29.75 15.75 29.3023 15.75 28.75V13.25ZM23.75 12.25C23.1977 12.25 22.75 12.6977 22.75 13.25V28.75C22.75 29.3023 23.1977 29.75 23.75 29.75H25.25C25.8023 29.75 26.25 29.3023 26.25 28.75V13.25C26.25 12.6977 25.8023 12.25 25.25 12.25H23.75Z" fill="white"/>
</mask>
<g mask="url(#mask0_5_390)">
<rect width="42" height="42" fill="white"/>
</g>
</svg>
