<svg width="25" height="25" viewBox="0 0 25 25" fill="none" xmlns="http://www.w3.org/2000/svg">
<path d="M12.273 22.6373C11.7207 22.6373 11.273 22.1896 11.273 21.6373L11.273 3.43421C11.273 2.88192 11.7207 2.43421 12.273 2.43421H12.7984C13.3507 2.43421 13.7984 2.88192 13.7984 3.43421V21.6373C13.7984 22.1896 13.3507 22.6373 12.7984 22.6373H12.273Z" fill="white"/>
<path d="M2.4342 12.273C2.4342 11.7208 2.88192 11.273 3.4342 11.273L21.6373 11.273C22.1896 11.273 22.6373 11.7208 22.6373 12.273V12.7984C22.6373 13.3507 22.1896 13.7984 21.6373 13.7984H3.4342C2.88192 13.7984 2.4342 13.3507 2.4342 12.7984V12.273Z" fill="white"/>
</svg>
