<svg width="42" height="42" viewBox="0 0 42 42" fill="none" xmlns="http://www.w3.org/2000/svg">
<mask id="mask0_1_40" style="mask-type:luminance" maskUnits="userSpaceOnUse" x="0" y="0" width="42" height="42">
<path fill-rule="evenodd" clip-rule="evenodd" d="M12 0C5.37258 0 0 5.37258 0 12V30C0 36.6274 5.37258 42 12 42H30C36.6274 42 42 36.6274 42 30V12C42 5.37258 36.6274 0 30 0H12ZM27.5827 21.8895L18.2669 30.0152C18.0544 30.2006 17.782 30.3027 17.5 30.3027C16.8557 30.3027 16.3333 29.7804 16.3333 29.136V12.8333C16.3333 12.5501 16.4364 12.2766 16.6232 12.0637C17.0482 11.5795 17.7854 11.5315 18.2696 11.9565L27.5854 20.1335C27.6244 20.1677 27.661 20.2044 27.695 20.2434C28.1186 20.729 28.0683 21.466 27.5827 21.8895Z" fill="white"/>
</mask>
<g mask="url(#mask0_1_40)">
<rect width="42" height="42" fill="white"/>
</g>
</svg>
